<svg xmlns="http://www.w3.org/2000/svg" width="113" height="113" viewBox="0 0 113 113">
  <g id="Group_5585" data-name="Group 5585" transform="translate(0.5 0.5)">
    <circle id="Ellipse_497" data-name="Ellipse 497" cx="56" cy="56" r="56" fill="#f4f4f4" stroke="#e0e0e0" stroke-width="1" opacity="0.3"/>
    <g id="Baloon" transform="translate(19.491 20.358)">
      <path id="Path" d="M0,0H71.9V71.9H0Z" fill="none" fill-rule="evenodd"/>
      <path id="Path-2" data-name="Path" d="M32.706,44.976A16.028,16.028,0,0,1,37.331,33.7c4.073-4.114,6.057-7.916,6.057-11.389a17.257,17.257,0,1,0-34.513,0c0,3.473,1.985,7.275,6.057,11.389a16.028,16.028,0,0,1,4.625,11.275v.165H32.706ZM6,22.312a20.133,20.133,0,1,1,40.265,0c0,4.342-2.331,8.807-6.89,13.412a13.152,13.152,0,0,0-3.793,9.252v1.6a1.438,1.438,0,0,1-1.438,1.438H18.12a1.438,1.438,0,0,1-1.438-1.438v-1.6a13.152,13.152,0,0,0-3.793-9.252C8.331,31.119,6,26.654,6,22.312Z" transform="translate(11.256 3.752)" fill="#0c4767"/>
      <path id="Path-3" data-name="Path" d="M13.876,27.628h5.752V21.876H13.876ZM12.438,19h8.628A1.438,1.438,0,0,1,22.5,20.438v8.628A1.438,1.438,0,0,1,21.066,30.5H12.438A1.438,1.438,0,0,1,11,29.066V20.438A1.438,1.438,0,0,1,12.438,19Z" transform="translate(20.637 35.645)" fill="#fe9920"/>
    </g>
  </g>
</svg>
