<svg xmlns="http://www.w3.org/2000/svg" width="20.58" height="20.58" viewBox="0 0 20.58 20.58">
  <g id="Group_2" data-name="Group 2" transform="translate(0 0)">
    <path id="Shape" d="M14.455,20.58H6.125A6.132,6.132,0,0,1,0,14.455V6.125A6.132,6.132,0,0,1,6.125,0h8.33A6.132,6.132,0,0,1,20.58,6.125v8.33A6.131,6.131,0,0,1,14.455,20.58Zm-8.33-18.5A4.047,4.047,0,0,0,2.082,6.125v8.33A4.047,4.047,0,0,0,6.125,18.5h8.33A4.047,4.047,0,0,0,18.5,14.455V6.125a4.047,4.047,0,0,0-4.042-4.043Z" transform="translate(0)" fill="#0c4767"/>
    <path id="Shape-2" data-name="Shape" d="M5.328,10.657a5.329,5.329,0,1,1,5.329-5.329A5.335,5.335,0,0,1,5.328,10.657Zm0-8.575A3.246,3.246,0,1,0,8.575,5.328,3.25,3.25,0,0,0,5.328,2.082Z" transform="translate(4.961 4.961)" fill="#0c4767"/>
    <circle id="Oval" cx="1.286" cy="1.286" r="1.286" transform="translate(14.332 3.675)" fill="#0c4767"/>
  </g>
</svg>
