<svg xmlns="http://www.w3.org/2000/svg" width="101" height="101" viewBox="0 0 101 101">
  <g id="Group_5600" data-name="Group 5600" transform="translate(-869.5 -1519.5)">
    <circle id="Ellipse_463" data-name="Ellipse 463" cx="50" cy="50" r="50" transform="translate(870 1520)" fill="#f4f4f4" stroke="#e0e0e0" stroke-width="1" opacity="0.3"/>
    <g id="Group_2843" data-name="Group 2843" transform="translate(-830 -286)">
      <path id="Path" d="M16.312,1.679.818,9.231,0,7.553,15.494,0Zm-.842,22.5L.481,16.605l.842-1.667,14.989,7.57Z" transform="translate(1761.516 1867.745) rotate(180)" fill="#fd9926"/>
      <path id="Path-2" data-name="Path" d="M30.811,0a6.536,6.536,0,1,1-6.536,6.536A6.536,6.536,0,0,1,30.811,0Zm0,26.143a6.536,6.536,0,1,1-6.536,6.536A6.536,6.536,0,0,1,30.811,26.143ZM6.536,13.071A6.536,6.536,0,1,1,0,19.607,6.536,6.536,0,0,1,6.536,13.071Zm24.275-11.2a4.668,4.668,0,1,0,4.668,4.668A4.668,4.668,0,0,0,30.811,1.867Zm0,26.143a4.668,4.668,0,1,0,4.668,4.668A4.668,4.668,0,0,0,30.811,28.01ZM6.536,14.939A4.668,4.668,0,1,0,11.2,19.607,4.668,4.668,0,0,0,6.536,14.939Z" transform="translate(1771.347 1875.214) rotate(180)" fill="#0c4767"/>
    </g>
  </g>
</svg>
