<svg xmlns="http://www.w3.org/2000/svg" width="21.596" height="17.74" viewBox="0 0 21.596 17.74">
  <path id="Path" d="M19.182,4.5v.546c0,5.868-4.427,12.691-12.475,12.691A11.2,11.2,0,0,1,0,15.693H1.073a8.7,8.7,0,0,0,5.5-1.91,4.622,4.622,0,0,1-4.158-3.139c.268,0,.537.136.8.136a3.654,3.654,0,0,0,1.207-.136A4.387,4.387,0,0,1,.939,6.277h0a4.386,4.386,0,0,0,2.012.546A4.5,4.5,0,0,1,.939,3.139,6.521,6.521,0,0,1,1.476.819,12.047,12.047,0,0,0,10.6,5.458a2.359,2.359,0,0,1-.134-.955A4.5,4.5,0,0,1,14.889,0a4.644,4.644,0,0,1,3.219,1.365A7.152,7.152,0,0,0,20.925.273a4.345,4.345,0,0,1-1.878,2.456A13.956,13.956,0,0,0,21.6,2.047,20.667,20.667,0,0,1,19.182,4.5Z" fill="#0c4767"/>
</svg>
