<svg xmlns="http://www.w3.org/2000/svg" width="68.286" height="68.286" viewBox="0 0 68.286 68.286">
  <g id="Group_2142" data-name="Group 2142" transform="translate(-1007 -337)">
    <g id="Coin" transform="translate(1007 337)">
      <path id="path" d="M0,0H68.286V68.286H0Z" fill="none" fill-rule="evenodd"/>
      <path id="path-2" data-name="path" d="M18.194,10.731h3.969A1.366,1.366,0,0,1,23.529,12.1v1.034a1.366,1.366,0,0,1-2.691.332h-6.7a1.366,1.366,0,0,0-1.366,1.366V16.2a1.366,1.366,0,0,0,1.366,1.366H19.56a4.1,4.1,0,0,1,4.1,4.1v1.364a4.1,4.1,0,0,1-4.1,4.1H18.194v1.342a1.366,1.366,0,0,1-2.731,0V27.12h-4.1A1.366,1.366,0,0,1,10,25.713l.038-1.252a1.366,1.366,0,0,1,2.726-.072h6.8a1.366,1.366,0,0,0,1.366-1.366V21.659a1.366,1.366,0,0,0-1.366-1.366H14.135a4.1,4.1,0,0,1-4.1-4.1V14.829a4.1,4.1,0,0,1,4.1-4.1h1.328V9.366a1.366,1.366,0,1,1,2.731,0Z" transform="translate(17.314 13.851)" fill="#fe9920"/>
      <path id="path-3" data-name="path" d="M30.68,2A28.68,28.68,0,1,1,2,30.68,28.68,28.68,0,0,1,30.68,2Zm0,2.731A25.949,25.949,0,1,0,56.629,30.68,25.949,25.949,0,0,0,30.68,4.731Zm0,5.463A20.486,20.486,0,1,1,10.194,30.68,20.486,20.486,0,0,1,30.68,10.194Zm0,2.731A17.754,17.754,0,1,0,48.434,30.68,17.754,17.754,0,0,0,30.68,12.926Z" transform="translate(3.463 3.463)" fill="#0c4767"/>
    </g>
    <path id="path-4" data-name="path" d="M30.68,2A28.68,28.68,0,1,1,2,30.68,28.68,28.68,0,0,1,30.68,2ZM4.731,30.68Z" transform="translate(1013.462 343.463)" fill="#fe9920" opacity="0.1"/>
  </g>
</svg>
