<svg id="Group_1435" data-name="Group 1435" xmlns="http://www.w3.org/2000/svg" width="254.018" height="45.776" viewBox="0 0 254.018 45.776">
  <g id="Group_1431" data-name="Group 1431" transform="translate(0 0)">
    <g id="Group_1429" data-name="Group 1429" transform="translate(2.776 1.582)">
      <path id="Path_2246" data-name="Path 2246" d="M354.58,412.864c2.977-.129,6.975-.853,8.3,2.613-2.31,2.96-6.291,3.358-9.526,1.694a5.332,5.332,0,0,1-2.8-3.051,2.424,2.424,0,0,1,.128-1.715A10.056,10.056,0,0,0,354.58,412.864Z" transform="translate(-342.24 -384.772)" fill="#fe9920"/>
      <path id="Path_2247" data-name="Path 2247" d="M303.853,375.959a6.819,6.819,0,0,1,.667-6.015,7.494,7.494,0,0,1,4.954-3.5,5.009,5.009,0,0,0,.082,6.382c.094.117.193.227.293.332a10.268,10.268,0,0,0-3.094,6.162C305.314,378.858,304.366,377.308,303.853,375.959Z" transform="translate(-303.433 -346.834)" fill="#fe9920"/>
      <path id="Path_2248" data-name="Path 2248" d="M358.247,287.136c-5.639.678-8.811,6.281-13.581,8.7a8.592,8.592,0,0,1-3.492.913.685.685,0,0,0,.2-.364c.094-.517-.469-1.054-1.259-1.2s-1.5.161-1.6.679a.8.8,0,0,0,.258.693c-4.41-.9-8.3-4.719-8.111-9.429a7.811,7.811,0,0,1,1.967-4.81,4.5,4.5,0,0,0-.043.66c.028,1.884,1.44,3.408,2.887,4.427a9.117,9.117,0,0,0,12.011-1.317c1.6-.6,2.535-1.5,2.756-2.693.464-2.48-2.5-4.968-2.837-5.243-.019-.015-.04-.031-.06-.044a14.067,14.067,0,1,1,24.054-9.935,15.41,15.41,0,0,1-4.272,10.08l.049.043c-.873,1.275-1.395,2.746-.287,4.114,1.168,1.443,3.844,1.41,5.471,1.16a9.424,9.424,0,0,0,6.429-4.165,5.328,5.328,0,0,0-.472-6.308c2.563-.189,4.915.783,5.88,3.476a8.057,8.057,0,0,1-.389,5.913.853.853,0,0,0-.143.31,9.753,9.753,0,0,1-1.2,1.894,10.582,10.582,0,0,1-5.324,3.383.71.71,0,0,0,.1-.475c-.094-.518-.81-.822-1.6-.679s-1.353.679-1.259,1.2a.738.738,0,0,0,.323.467,19.8,19.8,0,0,1-4.386.061C366.352,288.274,362.259,286.654,358.247,287.136Z" transform="translate(-325.904 -254.14)" fill="#fe9920"/>
      <path id="Path_2249" data-name="Path 2249" d="M604.676,364.514c.035-.676-.271-1.244-.721-1.3-.482-.057-.944.491-1.03,1.225s.232,1.375.714,1.433a.9.9,0,0,0,.839-.593,13.606,13.606,0,0,1-2,4.086c-.073.1-.153.193-.228.29a1.012,1.012,0,0,0-.192-1.063c-.435-.389-1.269-.168-1.862.494S599.47,370.6,599.9,371a1.009,1.009,0,0,0,1.067.077,13.026,13.026,0,0,1-3.864,2.495,1.088,1.088,0,0,0,.212-.969c-.219-.684-1.24-.966-2.28-.634s-1.707,1.157-1.487,1.84a1.089,1.089,0,0,0,.736.661,21.61,21.61,0,0,1-5.673.475,27.009,27.009,0,0,1-7.643-1.659,14.888,14.888,0,0,0,8.457-3.662,9.913,9.913,0,0,0,2.01-2.614c3.366.732,6.533-1.977,7.881-4.922a5.633,5.633,0,0,0-1.734-7.326c2.9.021,5.554,1.23,6.753,4.263A9.366,9.366,0,0,1,604.676,364.514Z" transform="translate(-532.513 -337.189)" fill="#fe9920"/>
    </g>
    <g id="Group_1430" data-name="Group 1430">
      <path id="Path_2250" data-name="Path 2250" d="M346.859,478.625c-.559-.338-1.192-.314-1.415.053s.051.939.611,1.277,1.192.315,1.413-.052S347.418,478.964,346.859,478.625Z" transform="translate(-335.27 -437.65)" fill="#0c4767"/>
      <path id="Path_2251" data-name="Path 2251" d="M329.255,460.4c-.272.229-.211.752.137,1.168s.853.568,1.126.339.211-.752-.137-1.168S329.528,460.168,329.255,460.4Z" transform="translate(-321.83 -422.713)" fill="#0c4767"/>
      <path id="Path_2252" data-name="Path 2252" d="M601.813,432.614c.559-.338.833-.91.61-1.276s-.855-.392-1.414-.054-.833.91-.61,1.277S601.254,432.952,601.813,432.614Z" transform="translate(-545.707 -398.575)" fill="#0c4767"/>
      <path id="Path_2253" data-name="Path 2253" d="M435.954,309.4a2.4,2.4,0,1,0,2.4,2.4A2.4,2.4,0,0,0,435.954,309.4Z" transform="translate(-408.058 -298.171)" fill="#0c4767"/>
      <path id="Path_2254" data-name="Path 2254" d="M496.815,313.332a1.715,1.715,0,1,0,1.715,1.715A1.717,1.717,0,0,0,496.815,313.332Z" transform="translate(-458.858 -301.415)" fill="#0c4767"/>
      <path id="Path_2255" data-name="Path 2255" d="M361.741,266.936c-2.1-3.974-6.756-4.656-10.767-3.764a.777.777,0,0,0,0,1.488c3.323.794,4.85,3.325,3.388,6.517-1,2.186-3.295,4.243-5.77,3.963a10.076,10.076,0,0,0,.2-6.313c-1.257-4.03-5.311-5.192-9.095-4.364a.778.778,0,0,0-.34,1.29c1.668,1.573,2.375,3.436,1.208,5.536a7.745,7.745,0,0,1-8.529,3.25c-1.492-.433-1.212-1.559-.6-2.543l.073.065a17.091,17.091,0,0,0,4.71-11.225,15.756,15.756,0,1,0-26.976,11.152,1.457,1.457,0,0,0,.214.182c.831.685,2.42,2.417,2.2,3.574a1.517,1.517,0,0,1-.7.923c-2.054-4.566-7.165-3.114-11.3-3.315a5.164,5.164,0,0,1-1.26-.216,8.734,8.734,0,0,1,1.42-1.089.772.772,0,0,0-.779-1.332,12.106,12.106,0,0,0-2.408,1.379,3.865,3.865,0,0,1-1.117-2.686,3.336,3.336,0,0,1,3.432-3.424c.161,0,.322-.006.483-.006a.772.772,0,0,0,0-1.544,5.665,5.665,0,0,0-.609.009c-4.548.116-9.212,1.446-10.866,6.294-1.207,3.535.21,9.258,4.329,10.116a10.167,10.167,0,0,0,.843,3.548c2.394,5.522,9.813,7.891,15.129,5.568,5.079-2.22,8.158-8.479,14.114-8.714a20.988,20.988,0,0,1,4.252.333.657.657,0,0,0,.433.256,90.108,90.108,0,0,1,11.615,3.088,25.648,25.648,0,0,0,8.92,1.162,16.2,16.2,0,0,0,13.531-7.583A12.035,12.035,0,0,0,361.741,266.936Zm-60.393,7.954c2.977-.129,6.975-.853,8.3,2.613-2.309,2.96-6.291,3.358-9.526,1.694a5.335,5.335,0,0,1-2.8-3.051,2.424,2.424,0,0,1,.128-1.715A10.075,10.075,0,0,0,301.349,274.89Zm-11.919,1.032a6.814,6.814,0,0,1,.668-6.014,7.486,7.486,0,0,1,4.953-3.5,5.009,5.009,0,0,0,.082,6.382c.094.117.193.227.293.332a10.275,10.275,0,0,0-3.094,6.162C290.89,278.822,289.942,277.27,289.429,275.921Zm31.922,3.872c-5.639.678-8.811,6.281-13.581,8.7a8.606,8.606,0,0,1-3.492.914.684.684,0,0,0,.2-.364c.094-.519-.469-1.054-1.259-1.2s-1.505.161-1.6.679a.806.806,0,0,0,.259.693c-4.41-.9-8.3-4.72-8.11-9.429a7.809,7.809,0,0,1,1.967-4.809,4.491,4.491,0,0,0-.042.66c.027,1.884,1.439,3.408,2.886,4.427a9.119,9.119,0,0,0,12.012-1.318c1.6-.6,2.534-1.5,2.755-2.693.464-2.48-2.5-4.968-2.837-5.243a.712.712,0,0,0-.06-.045,14.067,14.067,0,1,1,24.053-9.935,15.414,15.414,0,0,1-4.272,10.081l.048.043c-.873,1.275-1.394,2.746-.287,4.114,1.168,1.443,3.845,1.41,5.471,1.159a9.423,9.423,0,0,0,6.43-4.165,5.329,5.329,0,0,0-.473-6.308c2.563-.189,4.916.783,5.88,3.477a8.051,8.051,0,0,1-.389,5.913.855.855,0,0,0-.143.311,9.76,9.76,0,0,1-1.2,1.894,10.576,10.576,0,0,1-5.324,3.383.707.707,0,0,0,.1-.475c-.094-.518-.81-.822-1.6-.679s-1.353.679-1.259,1.2a.737.737,0,0,0,.323.467,19.822,19.822,0,0,1-4.385.061C329.456,280.931,325.363,279.311,321.351,279.793Zm39.821-5.67c.035-.676-.27-1.244-.722-1.3-.481-.057-.942.492-1.03,1.226s.232,1.375.713,1.432a.9.9,0,0,0,.839-.593,13.6,13.6,0,0,1-2,4.086c-.072.1-.152.193-.228.29a1.012,1.012,0,0,0-.192-1.064c-.434-.39-1.269-.168-1.862.494s-.721,1.517-.287,1.907a1.008,1.008,0,0,0,1.067.077,13.013,13.013,0,0,1-3.863,2.494,1.089,1.089,0,0,0,.211-.968c-.219-.684-1.24-.967-2.28-.634s-1.706,1.158-1.487,1.84a1.087,1.087,0,0,0,.736.661,21.6,21.6,0,0,1-5.672.474,26.99,26.99,0,0,1-7.644-1.658,14.892,14.892,0,0,0,8.457-3.662,9.886,9.886,0,0,0,2.01-2.614c3.366.732,6.533-1.978,7.881-4.923a5.632,5.632,0,0,0-1.734-7.325c2.9.021,5.554,1.229,6.753,4.262A9.364,9.364,0,0,1,361.172,274.123Z" transform="translate(-287.536 -245.082)" fill="#0c4767"/>
    </g>
  </g>
  <g id="Group_3204" data-name="Group 3204">
    <g id="Group_1432" data-name="Group 1432" transform="translate(89.588 13.943)">
      <path id="Path_2256" data-name="Path 2256" d="M202.936,531.219l8.131,16.365,8.1-16.365h4.892v24.636h-3.836l-.035-18.408L212.4,553.286h-2.71l-7.779-15.838v18.408h-3.906V531.219Z" transform="translate(-198.009 -531.078)" fill="#0c4767"/>
      <path id="Path_2257" data-name="Path 2257" d="M325.867,563.472H311.719a5.7,5.7,0,0,0,5.808,4.681,7.28,7.28,0,0,0,5.28-2.182l2.147,2.287a10.189,10.189,0,0,1-7.744,3.169c-5.771,0-9.573-3.837-9.573-9.468a9.09,9.09,0,0,1,9.469-9.537C323.686,552.421,326.361,556.714,325.867,563.472Zm-3.52-2.957a4.809,4.809,0,0,0-5.209-4.857,5.3,5.3,0,0,0-5.49,4.857Z" transform="translate(-277.789 -546.507)" fill="#0c4767"/>
      <path id="Path_2258" data-name="Path 2258" d="M399.3,563.472H385.15a5.7,5.7,0,0,0,5.808,4.681,7.282,7.282,0,0,0,5.281-2.182l2.147,2.287a10.191,10.191,0,0,1-7.744,3.169c-5.771,0-9.573-3.837-9.573-9.468a9.089,9.089,0,0,1,9.467-9.537C397.118,552.421,399.792,556.714,399.3,563.472Zm-3.521-2.957a4.807,4.807,0,0,0-5.209-4.857,5.3,5.3,0,0,0-5.49,4.857Z" transform="translate(-331.23 -546.507)" fill="#0c4767"/>
      <path id="Path_2259" data-name="Path 2259" d="M466.476,558.608a8.984,8.984,0,0,1-4.61,1.373c-2.816,0-5.243-1.619-5.243-5.456v-9.713h-2.641v-3.027h2.641v-5.139h4.012v5.139h5.525v3.027h-5.525v8.975c0,1.935.739,2.534,2.006,2.534a6.543,6.543,0,0,0,2.815-.81Z" transform="translate(-384.292 -535.027)" fill="#0c4767"/>
      <path id="Path_2260" data-name="Path 2260" d="M532.427,543.158c0,7.076-5.7,12.53-13.128,12.53s-13.128-5.455-13.128-12.53c0-7.109,5.7-12.459,13.128-12.459S532.427,536.084,532.427,543.158Zm-21.434,0a8.358,8.358,0,0,0,8.376,8.306,8.272,8.272,0,1,0-8.376-8.306Z" transform="translate(-422.273 -530.699)" fill="#fe9920"/>
      <path id="Path_2261" data-name="Path 2261" d="M618.048,556.042c-3.026,0-5.138,2.252-5.138,5.561,0,3.379,2.113,5.631,5.138,5.631a6.062,6.062,0,0,0,5.069-2.217l2.851,2.358c-1.655,2.393-4.47,3.8-8.166,3.8-5.631,0-9.5-3.872-9.5-9.538,0-5.737,3.906-9.608,9.574-9.608a9.6,9.6,0,0,1,7.884,3.449l-2.781,2.641A6.454,6.454,0,0,0,618.048,556.042Z" transform="translate(-496.596 -546.222)" fill="#fe9920"/>
      <path id="Path_2262" data-name="Path 2262" d="M690.9,558.454a9.069,9.069,0,0,1-4.716,1.373c-3.063,0-5.526-1.76-5.526-5.632V544.9h-2.641l-.035-3.343h2.676v-5.175h4.54v5.175h5.384V544.9H685.2v8.482c0,1.794.739,2.393,1.97,2.393a6.392,6.392,0,0,0,2.675-.774Z" transform="translate(-547.306 -534.838)" fill="#fe9920"/>
      <path id="Path_2263" data-name="Path 2263" d="M748.9,561.568c0,5.737-4.013,9.609-9.891,9.609-5.947,0-9.96-3.872-9.96-9.609,0-5.7,4.013-9.538,9.96-9.538C744.889,552.03,748.9,555.866,748.9,561.568Zm-15.24.071c0,3.379,2.182,5.7,5.35,5.7,3.1,0,5.28-2.322,5.28-5.7s-2.183-5.7-5.28-5.7C735.843,555.937,733.661,558.26,733.661,561.638Z" transform="translate(-584.472 -546.222)" fill="#fe9920"/>
    </g>
  </g>
</svg>
