<svg id="Planner" xmlns="http://www.w3.org/2000/svg" width="19.28" height="19.28" viewBox="0 0 19.28 19.28">
  <path id="path-273" d="M338.286,805.587h19.28v19.28h-19.28Z" transform="translate(-338.286 -805.587)" fill="none"/>
  <path id="path-274" d="M355.71,812.672v-1.928a.386.386,0,0,0-.386-.386H341.443a.386.386,0,0,0-.386.386v1.928Zm.771-1.928v10.8a2.7,2.7,0,0,1-2.7,2.7h-10.8a2.7,2.7,0,0,1-2.7-2.7v-10.8a1.157,1.157,0,0,1,1.157-1.157h13.881A1.157,1.157,0,0,1,356.481,810.744Zm-15.424,2.7v8.1a1.928,1.928,0,0,0,1.928,1.928h10.8a1.928,1.928,0,0,0,1.928-1.928v-8.1Z" transform="translate(-338.744 -806.502)" fill="#326483"/>
  <path id="path-275" d="M350.841,818.384a.386.386,0,1,1,0,.771h-6.17a.386.386,0,1,1,0-.771Zm-3.085-3.085a.386.386,0,1,1,0,.771h-3.085a.386.386,0,1,1,0-.771Zm6.17-7.712a.386.386,0,0,1,.386.386v2.314a.386.386,0,1,1-.771,0v-2.314A.386.386,0,0,1,353.926,807.587Zm-8.483,0a.386.386,0,0,1,.386.386v2.314a.386.386,0,1,1-.771,0v-2.314A.386.386,0,0,1,345.443,807.587Z" transform="translate(-339.659 -806.045)" fill="#0c9aa3"/>
</svg>
