<svg xmlns="http://www.w3.org/2000/svg" width="30" height="24" viewBox="0 0 30 24">
  <g id="Path_2322" data-name="Path 2322" transform="translate(-2 -4)" fill="#818181">
    <path d="M 29 27.64999961853027 L 5 27.64999961853027 C 4.288219928741455 27.64999961853027 3.621659994125366 27.37544059753418 3.123110055923462 26.87689018249512 C 2.624560117721558 26.37833976745605 2.349999904632568 25.7117805480957 2.349999904632568 25 L 2.365000009536743 7.000289916992188 C 2.365000009536743 6.286829948425293 2.637200117111206 5.619959831237793 3.131469964981079 5.122250080108643 C 3.626019954681396 4.624259948730469 4.289609909057617 4.349999904632568 5 4.349999904632568 L 29 4.349999904632568 C 29.7117805480957 4.349999904632568 30.37833976745605 4.624559879302979 30.87689018249512 5.123109817504883 C 31.37544059753418 5.621660232543945 31.64999961853027 6.288219928741455 31.64999961853027 7 L 31.64999961853027 25 C 31.64999961853027 25.7117805480957 31.37544059753418 26.37833976745605 30.87689018249512 26.87689018249512 C 30.37833976745605 27.37544059753418 29.7117805480957 27.64999961853027 29 27.64999961853027 Z M 4.650000095367432 15.64999961853027 L 4.650000095367432 16 L 4.650000095367432 25 L 4.650000095367432 25.35000038146973 L 5 25.35000038146973 L 29 25.35000038146973 L 29.35000038146973 25.35000038146973 L 29.35000038146973 25 L 29.35000038146973 16 L 29.35000038146973 15.64999961853027 L 29 15.64999961853027 L 5 15.64999961853027 L 4.650000095367432 15.64999961853027 Z M 4.650000095367432 6.650000095367432 L 4.650000095367432 7 L 4.650000095367432 10 L 4.650000095367432 10.35000038146973 L 5 10.35000038146973 L 29 10.35000038146973 L 29.35000038146973 10.35000038146973 L 29.35000038146973 10 L 29.35000038146973 7 L 29.35000038146973 6.650000095367432 L 29 6.650000095367432 L 5 6.650000095367432 L 4.650000095367432 6.650000095367432 Z" stroke="none"/>
    <path d="M 5 4.700000762939453 C 3.718690872192383 4.700000762939453 2.715000152587891 5.71027946472168 2.715000152587891 7.000579833984375 L 2.700000762939453 25 C 2.700000762939453 25.61828994750977 2.938159942626953 26.19696044921875 3.370599746704102 26.6294002532959 C 3.80303955078125 27.06184005737305 4.381710052490234 27.29999923706055 5 27.29999923706055 L 29 27.29999923706055 C 29.61828994750977 27.29999923706055 30.19696044921875 27.06184005737305 30.6294002532959 26.6294002532959 C 31.06184005737305 26.19696044921875 31.29999923706055 25.61828994750977 31.29999923706055 25 L 31.29999923706055 7 C 31.29999923706055 6.381710052490234 31.06184005737305 5.80303955078125 30.6294002532959 5.370599746704102 C 30.19696044921875 4.938159942626953 29.61828994750977 4.700000762939453 29 4.700000762939453 L 5 4.700000762939453 M 29.70000076293945 10.70000076293945 L 29 10.70000076293945 L 5 10.70000076293945 L 4.299999237060547 10.70000076293945 L 4.299999237060547 10 L 4.299999237060547 7 L 4.299999237060547 6.299999237060547 L 5 6.299999237060547 L 29 6.299999237060547 L 29.70000076293945 6.299999237060547 L 29.70000076293945 7 L 29.70000076293945 10 L 29.70000076293945 10.70000076293945 M 29.70000076293945 25.70000076293945 L 29 25.70000076293945 L 5 25.70000076293945 L 4.299999237060547 25.70000076293945 L 4.299999237060547 25 L 4.299999237060547 16 L 4.299999237060547 15.29999923706055 L 5 15.29999923706055 L 29 15.29999923706055 L 29.70000076293945 15.29999923706055 L 29.70000076293945 16 L 29.70000076293945 25 L 29.70000076293945 25.70000076293945 M 5 4 L 29 4 C 30.66500091552734 4 32 5.334999084472656 32 7 L 32 25 C 32 26.66500091552734 30.66500091552734 28 29 28 L 5 28 C 3.334999084472656 28 2 26.66500091552734 2 25 L 2.014999389648438 7 C 2.014999389648438 5.334999084472656 3.334999084472656 4 5 4 Z M 29 10 L 29 7 L 5 7 L 5 10 L 29 10 Z M 29 25 L 29 16 L 5 16 L 5 25 L 29 25 Z" stroke="none" fill="#fff"/>
  </g>
</svg>
