<svg xmlns="http://www.w3.org/2000/svg" width="77.957" height="19.036" viewBox="0 0 77.957 19.036">
  <g id="PayPal" transform="translate(0)">
    <path id="Path_2315" data-name="Path 2315" d="M42.316,6.749H38a.6.6,0,0,0-.592.506L35.664,18.317a.36.36,0,0,0,.356.415h2.06a.6.6,0,0,0,.592-.507l.471-2.984a.6.6,0,0,1,.592-.507H41.1c2.842,0,4.482-1.375,4.91-4.1a3.323,3.323,0,0,0-.55-2.785,4,4,0,0,0-3.145-1.1Zm.5,4.04c-.236,1.548-1.419,1.548-2.562,1.548H39.6l.457-2.891a.36.36,0,0,1,.355-.3h.3c.779,0,1.514,0,1.894.444a1.438,1.438,0,0,1,.209,1.2Zm12.4-.05H53.145a.36.36,0,0,0-.355.3l-.091.578-.144-.209a2.94,2.94,0,0,0-2.44-.866A4.751,4.751,0,0,0,45.5,14.7a3.9,3.9,0,0,0,.77,3.174,3.232,3.232,0,0,0,2.6,1.051,3.953,3.953,0,0,0,2.859-1.183l-.092.574a.36.36,0,0,0,.355.416h1.861a.6.6,0,0,0,.592-.507l1.117-7.071a.358.358,0,0,0-.354-.415Zm-2.88,4.021A2.3,2.3,0,0,1,50,16.733a1.6,1.6,0,0,1-1.711-2.008A2.312,2.312,0,0,1,50.6,12.736a1.743,1.743,0,0,1,1.378.563A1.788,1.788,0,0,1,52.331,14.76Zm13.882-4.021H64.137a.6.6,0,0,0-.5.263L60.778,15.22l-1.214-4.053a.6.6,0,0,0-.575-.428h-2.04a.36.36,0,0,0-.341.476l2.287,6.71-2.15,3.035a.36.36,0,0,0,.293.568h2.073a.6.6,0,0,0,.493-.257l6.9-9.967a.36.36,0,0,0-.3-.565Z" transform="translate(-13.166 -2.492)" fill="#253b80"/>
    <path id="Path_2316" data-name="Path 2316" d="M91.1,6.749H86.782a.6.6,0,0,0-.592.506L84.445,18.317a.359.359,0,0,0,.355.415h2.214a.419.419,0,0,0,.414-.355l.5-3.136a.6.6,0,0,1,.592-.507H89.88c2.842,0,4.482-1.375,4.911-4.1A3.321,3.321,0,0,0,94.24,7.85a4,4,0,0,0-3.143-1.1Zm.5,4.04c-.235,1.548-1.418,1.548-2.562,1.548h-.65l.457-2.891a.358.358,0,0,1,.354-.3h.3c.778,0,1.514,0,1.894.444a1.438,1.438,0,0,1,.209,1.2Zm12.4-.05h-2.065a.358.358,0,0,0-.355.3l-.091.578-.145-.209a2.939,2.939,0,0,0-2.439-.866A4.75,4.75,0,0,0,94.285,14.7a3.9,3.9,0,0,0,.769,3.174,3.234,3.234,0,0,0,2.6,1.051,3.953,3.953,0,0,0,2.859-1.183l-.092.574a.36.36,0,0,0,.356.416h1.86a.6.6,0,0,0,.592-.507l1.117-7.071a.36.36,0,0,0-.356-.415Zm-2.88,4.021a2.3,2.3,0,0,1-2.331,1.972,1.6,1.6,0,0,1-1.711-2.008,2.313,2.313,0,0,1,2.315-1.988,1.743,1.743,0,0,1,1.378.563A1.779,1.779,0,0,1,101.112,14.76Zm5.315-7.708-1.771,11.265a.359.359,0,0,0,.354.415h1.78a.6.6,0,0,0,.592-.507l1.746-11.062a.36.36,0,0,0-.355-.416h-1.993a.36.36,0,0,0-.354.3Z" transform="translate(-31.176 -2.491)" fill="#179bd7"/>
    <path id="Path_2317" data-name="Path 2317" d="M4.975,18.768l.33-2.1-.735-.017H1.061L3.5,1.193a.2.2,0,0,1,.2-.169H9.615c1.964,0,3.32.409,4.028,1.216a2.771,2.771,0,0,1,.645,1.209,4.366,4.366,0,0,1,0,1.668l-.008.049v.426l.332.188a2.328,2.328,0,0,1,.672.512,2.385,2.385,0,0,1,.545,1.222,5.171,5.171,0,0,1-.078,1.774,6.246,6.246,0,0,1-.727,2.008,4.13,4.13,0,0,1-1.151,1.262,4.67,4.67,0,0,1-1.55.7,7.732,7.732,0,0,1-1.938.224h-.46A1.385,1.385,0,0,0,8.559,14.65l-.035.189-.583,3.693-.026.136a.117.117,0,0,1-.037.079.1.1,0,0,1-.061.022H4.975Z" transform="translate(-0.392 -0.378)" fill="#253b80"/>
    <path id="Path_2318" data-name="Path 2318" d="M16.823,7.667q-.026.169-.061.347c-.78,4.006-3.45,5.39-6.859,5.39H8.168a.843.843,0,0,0-.833.714l-.889,5.637-.252,1.6a.444.444,0,0,0,.438.513H9.711a.741.741,0,0,0,.732-.624l.03-.156.58-3.679.037-.2a.74.74,0,0,1,.732-.626h.46c2.983,0,5.318-1.211,6-4.716a4.015,4.015,0,0,0-.617-3.546,2.944,2.944,0,0,0-.843-.65Z" transform="translate(-2.285 -2.831)" fill="#179bd7"/>
    <path id="Path_2319" data-name="Path 2319" d="M16.678,6.987a6.155,6.155,0,0,0-.759-.168,9.641,9.641,0,0,0-1.53-.112H9.751a.739.739,0,0,0-.731.626l-.987,6.249-.028.182a.843.843,0,0,1,.833-.714h1.736c3.409,0,6.079-1.385,6.859-5.39.023-.119.043-.234.061-.347a4.16,4.16,0,0,0-.642-.271q-.087-.029-.175-.055Z" transform="translate(-2.955 -2.476)" fill="#222d65"/>
    <path id="Path_2320" data-name="Path 2320" d="M6.064,4.856A.737.737,0,0,1,6.8,4.231h4.638a9.641,9.641,0,0,1,1.53.112,6.155,6.155,0,0,1,.934.223,4.222,4.222,0,0,1,.642.271,3.784,3.784,0,0,0-.8-3.4C12.854.43,11.262,0,9.224,0H3.307a.846.846,0,0,0-.836.715L.006,16.336a.508.508,0,0,0,.5.588H4.161l.917-5.819.987-6.249Z" transform="translate(0 0)" fill="#253b80"/>
  </g>
</svg>
