<svg xmlns="http://www.w3.org/2000/svg" width="20.631" height="20.631" viewBox="0 0 20.631 20.631">
  <g id="Share" transform="translate(-497.786 -232.935)">
    <path id="Path-9" d="M497.786,232.935h20.631v20.631H497.786Z" fill="none"/>
    <path id="Path-10" d="M497.786,232.935h20.631v20.631H497.786Z" fill="none"/>
    <path id="Path-11" d="M513.259,239.678l-6.849,3.337-.361-.743,6.849-3.337Zm-.372,9.942-6.624-3.346.372-.737,6.624,3.345Z" transform="translate(-1.444 -1.049)" fill="#0c9aa3"/>
    <path id="Path-12" d="M514.4,234.935a2.888,2.888,0,1,1-2.888,2.888A2.888,2.888,0,0,1,514.4,234.935Zm0,11.553a2.888,2.888,0,1,1-2.888,2.888A2.888,2.888,0,0,1,514.4,246.488Zm-10.728-5.777a2.888,2.888,0,1,1-2.888,2.888A2.888,2.888,0,0,1,503.674,240.712ZM514.4,235.76a2.063,2.063,0,1,0,2.063,2.063A2.063,2.063,0,0,0,514.4,235.76Zm0,11.553a2.063,2.063,0,1,0,2.063,2.063A2.063,2.063,0,0,0,514.4,247.313Zm-10.728-5.777a2.063,2.063,0,1,0,2.063,2.063A2.063,2.063,0,0,0,503.674,241.537Z" transform="translate(-0.524 -0.35)" fill="#326483"/>
  </g>
</svg>
