<svg xmlns="http://www.w3.org/2000/svg" width="175.749" height="45.804" viewBox="0 0 175.749 45.804">
  <g id="suzuki-5" transform="translate(-8.503 -77.441)">
    <path id="Path_2533" data-name="Path 2533" d="M25.154,111.686c2.4-2.68,14.37-10.062,17.3-10.388-1.36-1.077-21.1-14.789-21.424-14.963-.623-.34.275-1.306,1.031-.687.511.418,6.833,4.6,7.626,5.169,4.027,2.876,10.511.43,12.894-1.3-1.417-1.134-16.55-11.336-16.947-12.072l.057.057C23.94,80.312,11.735,87.727,8.8,88.053c1.36,1.076,20.539,14.72,20.857,14.894,1.044.569.059,1.219-.921.631-.567-.34-7.239-5.057-8.076-5.555-3.544-2.109-9.954-.612-12.16,1.733C9.921,100.89,24.757,110.948,25.154,111.686Z" fill="#cc2131" fill-rule="evenodd"/>
    <path id="Path_2534" data-name="Path 2534" d="M55.761,97c-3.71-.772-5.205-3.088-5.205-5.616,0-4.072,4.512-6.372,11.671-6.372,6.1,0,11.722,2.018,11.722,6.577h-8.7c-.056-1.494-2.271-2.37-3.714-2.318-1.552.056-2.782.761-2.782,1.357,0,1.116,1.254,1.13,2.268,1.374,1.857.434,5.717.849,8.2,1.672,3.1,1.033,5.3,3.021,5.3,5.387,0,4.816-5.643,6.9-12.572,6.8-7.213-.1-11.8-1.663-11.8-6.78h9.666a1.85,1.85,0,0,0,.846,1.576,11.651,11.651,0,0,0,3.019.537c1.424,0,2.339-.733,2.339-1.6,0-.733-.725-1.285-2.061-1.46-1.187-.154-6.134-.463-8.194-1.133Zm43.126,1.6c0,5.465-3.349,7.269-11.335,7.269-7.414,0-11.63-1.392-11.63-7.269V85.528h7.4V98.269c0,1.927,1.7,2.751,4.26,2.751,2.335,0,3.984-.979,3.984-2.751V85.528h7.316V98.6Zm1.6,2.527,11.438-10.493H101v-5.1h22.619v4.311L112.184,100.4h11.332v5H100.484v-4.276ZM148.326,98.6c0,5.567-4.311,7.269-11.723,7.269s-11.232-1.186-11.232-7.269V85.528h7.367V98.269c0,1.551,1.65,2.6,3.916,2.6,2.629,0,4.277-1.045,4.277-2.6V85.528h7.4V98.6Zm1.725-13.067h7.47v6.938h.069l8.383-6.938h9.584l-11.182,9.721,10.82,10.2h-9.662l-7.943-7.007h-.069v7.007h-7.47V85.528Zm26.637,0h7.564V105.4h-7.564Z" fill="#1d5a98" fill-rule="evenodd"/>
    <path id="Path_2535" data-name="Path 2535" d="M54.615,113.281c.062-.382.087-.517.771-.517.995,0,1.505.529,1.505,1.771,0,1.6-.647,1.869-2.276,1.882v-3.136Zm5.43,7.107a.567.567,0,0,1-.507-.236l-2.476-3.541c.665-.206,1.932-.587,1.932-2.1,0-2.077-2.614-2.173-3.484-2.173H51.53v.3c.705.05,1.088.075,1.088,1.137v5.469c0,1.008-.247,1.046-1.088,1.145v.3h4.179v-.3c-.821-.111-1.094-.148-1.094-1.145V116.8h.335l2.567,3.886h2.527v-.3h0Zm3.242.3H60.333v-.3c.445-.111.655-.148.655-.742v-3.64c0-.558-.186-.644-.655-.731v-.3h2.373v4.7c0,.384.1.656.581.705v.3Zm-1.445-8.521a.952.952,0,0,1,.949.961.955.955,0,0,1-1.91,0A.955.955,0,0,1,61.842,112.166Zm5.89,7.138c0,.137-.458.87-1.027.87-.991,0-.991-1.615-.991-2.336,0-1.205.174-2.323,1.052-2.323a1.131,1.131,0,0,1,.966.771V119.3Zm2.447.848c-.705-.025-.729-.385-.729-.72v-7.094H66.792v.3c.681.05.94.062.94.711v2.242a1.92,1.92,0,0,0-1.461-.761c-1.161,0-2.381,1.021-2.381,3.179,0,1.819,1.134,2.854,2.159,2.854a2.021,2.021,0,0,0,1.721-.812v.8a11.53,11.53,0,0,1,2.41-.417v-.279h0Zm2.282-2.941c0-1.724.425-2,.888-2a.68.68,0,0,1,.676.587,7.535,7.535,0,0,1,.112,1.411Zm2.962,1.938a1.834,1.834,0,0,1-1.4.831c-1.188,0-1.463-1.265-1.5-2.318h3.135c-.038-.663-.2-2.833-2.359-2.833-1.431,0-2.555,1.17-2.555,3.006,0,2.121,1.26,3.025,2.518,3.025a2.728,2.728,0,0,0,2.459-1.537l-.3-.174Zm7.383-3.634H81.644v3.737c0,.2-.013.708.481.708.359,0,.569-.385.706-.646l.309.136a2.006,2.006,0,0,1-1.817,1.388,1.244,1.244,0,0,1-1.4-1.3v-4.023h-.643v-.329a10.647,10.647,0,0,0,2.052-2.3h.309v2.091h1.162v.536Zm6.932,5.172h-2.9v-.3c.406-.036.578-.247.578-.705v-2.994c0-.347-.012-1.027-.676-1.027a1.405,1.405,0,0,0-1.021.718v3.3a.6.6,0,0,0,.6.705v.3H83.346v-.3c.445-.086.655-.136.655-.742v-6.3c0-.576-.173-.612-.655-.711v-.3h2.373V115.8a2.219,2.219,0,0,1,1.758-.97,1.6,1.6,0,0,1,1.656,1.749v3.068c0,.211,0,.742.605.742Zm2.3-3.476c0-1.724.425-2,.888-2a.678.678,0,0,1,.675.587,7.452,7.452,0,0,1,.113,1.411ZM95,119.149a1.834,1.834,0,0,1-1.4.831c-1.188,0-1.463-1.265-1.5-2.318h3.135c-.037-.663-.2-2.833-2.359-2.833-1.431,0-2.555,1.17-2.555,3.006,0,2.121,1.26,3.025,2.518,3.025a2.727,2.727,0,0,0,2.458-1.537l-.3-.174Zm12.338-3.873c-.236.05-.408.075-.619.62L104.8,120.86h-.285l-1.236-3.751h-.061l-1.51,3.751h-.3l-1.83-4.63c-.32-.806-.383-.892-.705-.954v-.3h2.746v.3c-.172.025-.471.05-.471.372a25.972,25.972,0,0,0,1.039,2.859l.842-2.117q-.112-.414-.26-.817c-.111-.259-.248-.259-.545-.3v-.3h2.895v.3c-.322.025-.594.05-.594.31s.52,1.87.742,2.836h.023c.334-.94.965-2.414.965-2.688,0-.4-.246-.42-.594-.458v-.3h1.672v.3h0Zm3.35,5.411h-2.955v-.3c.445-.111.656-.148.656-.742v-3.64c0-.558-.186-.644-.656-.731v-.3H110.1v4.7c0,.384.1.656.582.705v.3Zm-1.446-8.521a.952.952,0,0,1,.949.961.955.955,0,0,1-1.91,0A.955.955,0,0,1,109.24,112.166Zm8.385,8.521h-2.9v-.3c.406-.036.578-.247.578-.705v-2.994c0-.347-.014-1.027-.676-1.027a1.405,1.405,0,0,0-1.021.718v3.3a.6.6,0,0,0,.6.705v.3h-2.975v-.3c.445-.086.656-.136.656-.742v-3.64c0-.558-.16-.656-.656-.731v-.3h2.361v.894h.025a2.006,2.006,0,0,1,1.744-1.044,1.6,1.6,0,0,1,1.656,1.747v3.107c0,.3,0,.681.605.705v.3h0Zm4.381-1.383c0,.137-.459.87-1.027.87-.992,0-.992-1.615-.992-2.336,0-1.205.174-2.323,1.055-2.323a1.132,1.132,0,0,1,.965.771V119.3h0Zm2.447.848c-.705-.025-.73-.385-.73-.72v-7.094h-2.658v.3c.682.05.941.062.941.711v2.242a1.922,1.922,0,0,0-1.461-.761c-1.162,0-2.383,1.021-2.383,3.179,0,1.819,1.135,2.854,2.16,2.854a2.022,2.022,0,0,0,1.721-.812v.8a11.53,11.53,0,0,1,2.41-.417v-.279Zm4.156-3.506a1.691,1.691,0,0,0-1.529-1.411.756.756,0,0,0-.8.706c0,1.262,2.9.978,2.9,3.007a1.808,1.808,0,0,1-1.936,1.91,7.23,7.23,0,0,1-1.572-.362c-.137,0-.211.1-.336.35h-.3V118.8h.336a1.829,1.829,0,0,0,1.74,1.634.817.817,0,0,0,.885-.817c0-1.139-2.959-1.064-2.959-2.97a1.819,1.819,0,0,1,1.977-1.818,8.4,8.4,0,0,1,1.32.271.3.3,0,0,0,.309-.247h.275v1.794h-.312Zm6.133,1.2c0-1.412.061-2.638.973-2.638.754,0,.963.73.963,2.638,0,1.572-.1,2.625-.949,2.625C134.742,120.476,134.742,119.188,134.742,117.851Zm-1.822,0a2.8,2.8,0,1,0,2.795-3.021A2.83,2.83,0,0,0,132.92,117.851Zm6.057,2.539c.42-.05.705-.087.705-.744v-4.131h-.705v-.536h.705c0-1.184.012-2.812,2.25-2.812.754,0,1.678.384,1.678,1.226a.723.723,0,0,1-.775.756.693.693,0,0,1-.727-.659c0-.328.27-.523.27-.707s-.221-.231-.369-.231c-.6,0-.609.61-.609.938v1.489h1.078v.536H141.4v3.9c0,.855.211.955,1.018.979v.3h-3.439v-.3h0Zm12.337-.834a2.838,2.838,0,0,1-2.348,1.3,2.693,2.693,0,0,1-2.635-2.838,2.9,2.9,0,0,1,2.9-3.191c.873,0,1.9.458,1.9,1.349a.763.763,0,0,1-.836.792c-.688,0-.688-.606-.688-1.274a.478.478,0,0,0-.5-.482c-.957,0-1.043,1.522-1.043,2.078,0,1.731.75,2.734,1.705,2.734a1.6,1.6,0,0,0,1.316-.693l.225.222Zm6.782,1.131h-2.9v-.3c.406-.036.578-.247.578-.705v-2.994c0-.347-.014-1.027-.676-1.027a1.4,1.4,0,0,0-1.021.718v3.3a.6.6,0,0,0,.6.705v.3H151.7v-.3c.445-.086.656-.136.656-.742v-6.3c0-.576-.174-.612-.656-.711v-.3h2.373V115.8a2.221,2.221,0,0,1,1.758-.97,1.6,1.6,0,0,1,1.656,1.749v3.068c0,.211,0,.742.6.742v.3Zm3.908-1.24a1.242,1.242,0,0,1-.887.534c-.449,0-.637-.447-.637-.832,0-1.08,1.236-1.439,1.523-1.5v1.8h0Zm2.217.447-.125.124a.159.159,0,0,1-.123.05.264.264,0,0,1-.273-.31v-3.239c0-1.168-1.094-1.69-2.465-1.69-1.539,0-2.318.746-2.318,1.528a.828.828,0,0,0,1.646.149c0-.483-.371-.583-.371-.844,0-.2.285-.446.732-.446.918,0,1.092.459,1.092,1.092v.906c-1.771.534-3.34,1.03-3.34,2.321a1.3,1.3,0,0,0,1.359,1.325,2.827,2.827,0,0,0,1.98-.865.907.907,0,0,0,1.033.865,1.781,1.781,0,0,0,1.355-.705l-.182-.261Zm7,.793h-2.9v-.3c.4-.036.576-.247.576-.705v-2.994c0-.347-.012-1.027-.676-1.027a1.407,1.407,0,0,0-1.02.718v3.3a.6.6,0,0,0,.6.705v.3h-2.977v-.3c.445-.086.656-.136.656-.742v-3.64c0-.558-.16-.656-.656-.731v-.3h2.361v.894h.023a2.01,2.01,0,0,1,1.746-1.044,1.6,1.6,0,0,1,1.656,1.747v3.107c0,.3,0,.681.6.705v.3h0Zm4.213.644c.641,0,.984.188.984.638,0,.889-1.551.889-2.043.889-.209,0-1.5-.025-1.5-.825,0-.276.111-.438.432-.7h2.129Zm1.961-5.56v-.662h-1.609a3.39,3.39,0,0,0-1.361-.279c-1.7,0-2.535.979-2.535,1.97a2.031,2.031,0,0,0,1.508,1.894v.024c-.523.148-1.443.633-1.443,1.415,0,.643.41.828.969,1.025v.025c-.693.062-1.141.436-1.141.937,0,.7.918,1.125,2.445,1.125s3.176-.327,3.176-1.876c0-1.373-1.428-1.5-2.029-1.509l-.8-.013c-.912-.012-1.23-.024-1.23-.447,0-.372.455-.621.689-.621a4.047,4.047,0,0,0,1.553-.111,1.694,1.694,0,0,0,1.3-1.676,1.6,1.6,0,0,0-.5-1.221h1Zm-3.813,1.065c0-.78.062-1.623.816-1.623.818,0,.818,1.065.818,1.623,0,.706-.037,1.6-.818,1.6C173.666,118.435,173.58,117.69,173.58,116.836Zm6.055.375c0-1.724.426-2,.889-2a.681.681,0,0,1,.676.587,7.449,7.449,0,0,1,.111,1.411Zm2.963,1.938a1.836,1.836,0,0,1-1.4.831c-1.189,0-1.463-1.265-1.5-2.318h3.135c-.037-.663-.2-2.833-2.359-2.833-1.432,0-2.555,1.17-2.555,3.006,0,2.121,1.26,3.025,2.518,3.025a2.727,2.727,0,0,0,2.459-1.537l-.3-.174Z" fill-rule="evenodd"/>
  </g>
</svg>
