<svg xmlns="http://www.w3.org/2000/svg" width="19" height="19" viewBox="0 0 19 19">
  <g id="Group_3206" data-name="Group 3206" transform="translate(-460.001 -522)">
    <g id="Desktop-Cam" transform="translate(-307.285 -233.587)">
      <path id="Path-316" d="M767.286,755.587h19v19h-19Z" fill="none"/>
      <path id="Path-317" d="M773.046,776.617v-.473a2.261,2.261,0,0,1,.957-1.9c.176-.116-.239-.76-.416-.645a3.032,3.032,0,0,0-1.3,2.544V777a.38.38,0,0,0,.375.385h10.645a.38.38,0,0,0,.38-.38v-.863a3.052,3.052,0,0,0-1.205-2.477.38.38,0,0,0-.531.086v0a.388.388,0,0,0,.087.537,2.282,2.282,0,0,1,.89,1.851v.473Z" transform="translate(-1.2 -4.32)" fill="#fe9920"/>
      <path id="Path-318" d="M777.506,772.027a7.22,7.22,0,1,1,7.22-7.22A7.22,7.22,0,0,1,777.506,772.027Zm0-.76a6.46,6.46,0,1,0-6.46-6.46A6.46,6.46,0,0,0,777.506,771.267Z" transform="translate(-0.72 -0.48)" fill="#0c4767"/>
      <path id="Path-319" d="M778.466,769.947a4.18,4.18,0,1,1,4.18-4.18A4.18,4.18,0,0,1,778.466,769.947Zm0-.76a3.42,3.42,0,1,0-3.42-3.42h0A3.42,3.42,0,0,0,778.466,769.187Z" transform="translate(-1.68 -1.44)" fill="#fe9920"/>
      <path id="Path-320" d="M779.186,768.387a1.9,1.9,0,1,1,1.9-1.9A1.9,1.9,0,0,1,779.186,768.387Zm0-.76a1.14,1.14,0,1,0-1.14-1.14A1.14,1.14,0,0,0,779.186,767.627Z" transform="translate(-2.4 -2.16)" fill="#0c4767"/>
    </g>
  </g>
</svg>
