<svg id="Group_1435" data-name="Group 1435" xmlns="http://www.w3.org/2000/svg" width="173.096" height="31.193" viewBox="0 0 173.096 31.193">
  <g id="Group_1431" data-name="Group 1431" transform="translate(0 0)">
    <g id="Group_1429" data-name="Group 1429" transform="translate(1.891 1.078)">
      <path id="Path_2246" data-name="Path 2246" d="M353.264,412.718c2.029-.088,4.753-.581,5.654,1.781a5.113,5.113,0,0,1-6.491,1.155,3.633,3.633,0,0,1-1.908-2.079,1.652,1.652,0,0,1,.087-1.169A6.852,6.852,0,0,0,353.264,412.718Z" transform="translate(-344.855 -393.575)" fill="#fe9920"/>
      <path id="Path_2247" data-name="Path 2247" d="M303.719,372.927a4.647,4.647,0,0,1,.455-4.1,5.106,5.106,0,0,1,3.376-2.386,3.413,3.413,0,0,0,.056,4.349c.064.08.131.155.2.226a7,7,0,0,0-2.108,4.2A3.653,3.653,0,0,1,303.719,372.927Z" transform="translate(-303.433 -353.081)" fill="#fe9920"/>
      <path id="Path_2248" data-name="Path 2248" d="M349.458,276.625c-3.843.462-6,4.28-9.254,5.931a5.855,5.855,0,0,1-2.38.622.467.467,0,0,0,.137-.248c.064-.353-.32-.718-.858-.815s-1.025.11-1.09.463a.548.548,0,0,0,.176.472c-3-.61-5.653-3.216-5.527-6.425a5.323,5.323,0,0,1,1.34-3.277,3.07,3.07,0,0,0-.029.45,4.033,4.033,0,0,0,1.967,3.016,6.212,6.212,0,0,0,8.185-.9A2.585,2.585,0,0,0,344,274.081c.316-1.69-1.7-3.385-1.933-3.573l-.041-.03a9.586,9.586,0,1,1,16.391-6.77,10.5,10.5,0,0,1-2.911,6.869l.033.029a2.2,2.2,0,0,0-.2,2.8c.8.983,2.619.961,3.728.79a6.422,6.422,0,0,0,4.381-2.838,3.631,3.631,0,0,0-.322-4.3,3.637,3.637,0,0,1,4.007,2.369,5.491,5.491,0,0,1-.265,4.029.581.581,0,0,0-.1.211,6.65,6.65,0,0,1-.816,1.291,7.211,7.211,0,0,1-3.628,2.306.484.484,0,0,0,.066-.324c-.064-.353-.552-.56-1.09-.463s-.922.463-.858.815a.5.5,0,0,0,.22.318,13.5,13.5,0,0,1-2.989.042C354.981,277.4,352.192,276.3,349.458,276.625Z" transform="translate(-327.419 -254.14)" fill="#fe9920"/>
      <path id="Path_2249" data-name="Path 2249" d="M597.125,361.406c.024-.46-.185-.848-.492-.884-.329-.039-.643.335-.7.835s.158.937.486.976a.615.615,0,0,0,.572-.4,9.27,9.27,0,0,1-1.366,2.784c-.049.069-.1.131-.155.2a.689.689,0,0,0-.131-.725c-.3-.265-.865-.115-1.269.337s-.492,1.033-.2,1.3a.687.687,0,0,0,.727.053,8.877,8.877,0,0,1-2.633,1.7.741.741,0,0,0,.144-.66c-.149-.466-.845-.659-1.554-.432s-1.163.789-1.013,1.254a.742.742,0,0,0,.5.451,14.726,14.726,0,0,1-3.866.323,18.4,18.4,0,0,1-5.208-1.13,10.145,10.145,0,0,0,5.763-2.5,6.754,6.754,0,0,0,1.37-1.782c2.294.5,4.452-1.347,5.371-3.354a3.839,3.839,0,0,0-1.182-4.992,4.635,4.635,0,0,1,4.6,2.9A6.382,6.382,0,0,1,597.125,361.406Z" transform="translate(-547.951 -342.785)" fill="#fe9920"/>
    </g>
    <g id="Group_1430" data-name="Group 1430">
      <path id="Path_2250" data-name="Path 2250" d="M346.384,478.549c-.381-.23-.812-.214-.964.036s.035.64.417.87.812.214.963-.036S346.765,478.78,346.384,478.549Z" transform="translate(-338.486 -450.627)" fill="#0c4767"/>
      <path id="Path_2251" data-name="Path 2251" d="M329.2,460.362c-.186.156-.144.512.094.8s.581.387.767.231.144-.512-.093-.8S329.387,460.207,329.2,460.362Z" transform="translate(-324.141 -434.684)" fill="#0c4767"/>
      <path id="Path_2252" data-name="Path 2252" d="M601.338,432.115c.381-.23.567-.62.416-.869s-.583-.267-.964-.036-.567.62-.416.87S600.957,432.345,601.338,432.115Z" transform="translate(-563.106 -408.92)" fill="#0c4767"/>
      <path id="Path_2253" data-name="Path 2253" d="M435.189,309.4a1.636,1.636,0,1,0,1.636,1.636A1.637,1.637,0,0,0,435.189,309.4Z" transform="translate(-416.18 -301.749)" fill="#0c4767"/>
      <path id="Path_2254" data-name="Path 2254" d="M496.268,313.332a1.169,1.169,0,1,0,1.169,1.169A1.17,1.17,0,0,0,496.268,313.332Z" transform="translate(-470.404 -305.211)" fill="#0c4767"/>
      <path id="Path_2255" data-name="Path 2255" d="M338.1,259.974c-1.433-2.708-4.6-3.173-7.337-2.565a.529.529,0,0,0,0,1.014c2.265.541,3.3,2.266,2.309,4.441-.682,1.489-2.245,2.891-3.932,2.7a6.866,6.866,0,0,0,.133-4.3c-.856-2.746-3.619-3.538-6.2-2.974a.53.53,0,0,0-.232.879c1.136,1.072,1.618,2.342.823,3.773a5.278,5.278,0,0,1-5.812,2.215c-1.016-.3-.826-1.062-.407-1.733l.049.044a11.646,11.646,0,0,0,3.21-7.649,10.737,10.737,0,1,0-18.382,7.6.993.993,0,0,0,.146.124c.566.466,1.649,1.647,1.5,2.435a1.034,1.034,0,0,1-.478.629c-1.4-3.111-4.882-2.122-7.7-2.259a3.518,3.518,0,0,1-.859-.147,5.953,5.953,0,0,1,.968-.742.526.526,0,0,0-.531-.908,8.251,8.251,0,0,0-1.641.94,2.634,2.634,0,0,1-.761-1.83,2.274,2.274,0,0,1,2.339-2.333c.11,0,.22,0,.329,0a.526.526,0,0,0,0-1.052,3.862,3.862,0,0,0-.415.006c-3.1.079-6.277.985-7.4,4.289-.822,2.409.143,6.309,2.95,6.894a6.929,6.929,0,0,0,.574,2.418c1.632,3.763,6.687,5.377,10.309,3.794,3.461-1.513,5.559-5.778,9.618-5.938a14.3,14.3,0,0,1,2.9.227.448.448,0,0,0,.3.175,61.4,61.4,0,0,1,7.915,2.1,17.478,17.478,0,0,0,6.079.792,11.042,11.042,0,0,0,9.22-5.168A8.2,8.2,0,0,0,338.1,259.974Zm-41.154,5.42c2.029-.088,4.753-.581,5.654,1.781a5.113,5.113,0,0,1-6.491,1.155,3.635,3.635,0,0,1-1.908-2.079,1.652,1.652,0,0,1,.087-1.169A6.865,6.865,0,0,0,296.948,265.394Zm-8.122.7a4.643,4.643,0,0,1,.455-4.1,5.1,5.1,0,0,1,3.375-2.386,3.413,3.413,0,0,0,.056,4.349c.064.08.131.155.2.226a7,7,0,0,0-2.108,4.2A3.654,3.654,0,0,1,288.826,266.1Zm21.752,2.639c-3.843.462-6,4.28-9.254,5.931a5.864,5.864,0,0,1-2.38.623.466.466,0,0,0,.137-.248c.064-.353-.32-.718-.858-.815s-1.026.11-1.09.463a.549.549,0,0,0,.176.472c-3-.61-5.654-3.216-5.527-6.425a5.322,5.322,0,0,1,1.34-3.277,3.06,3.06,0,0,0-.029.45,4.031,4.031,0,0,0,1.966,3.017,6.214,6.214,0,0,0,8.185-.9,2.584,2.584,0,0,0,1.877-1.835c.316-1.69-1.7-3.385-1.933-3.573a.49.49,0,0,0-.041-.03,9.586,9.586,0,1,1,16.391-6.77,10.5,10.5,0,0,1-2.911,6.869l.033.029a2.2,2.2,0,0,0-.2,2.8c.8.983,2.62.961,3.728.79a6.421,6.421,0,0,0,4.382-2.838,3.631,3.631,0,0,0-.322-4.3,3.637,3.637,0,0,1,4.007,2.369,5.486,5.486,0,0,1-.265,4.029.583.583,0,0,0-.1.212,6.653,6.653,0,0,1-.816,1.29,7.207,7.207,0,0,1-3.628,2.305.482.482,0,0,0,.066-.323c-.064-.353-.552-.56-1.09-.463s-.922.462-.858.815a.5.5,0,0,0,.22.318,13.506,13.506,0,0,1-2.988.042C316.1,269.51,313.312,268.407,310.579,268.735Zm27.136-3.864c.024-.461-.184-.848-.492-.885-.328-.039-.642.335-.7.835s.158.937.486.976a.614.614,0,0,0,.572-.4,9.272,9.272,0,0,1-1.366,2.785c-.049.069-.1.131-.155.2a.689.689,0,0,0-.131-.725c-.3-.265-.865-.114-1.269.337s-.492,1.033-.2,1.3a.687.687,0,0,0,.727.052,8.868,8.868,0,0,1-2.632,1.7.742.742,0,0,0,.144-.66c-.149-.466-.845-.659-1.553-.432s-1.162.789-1.013,1.254a.741.741,0,0,0,.5.451,14.724,14.724,0,0,1-3.865.323,18.392,18.392,0,0,1-5.209-1.13,10.148,10.148,0,0,0,5.763-2.5,6.736,6.736,0,0,0,1.37-1.781c2.294.5,4.452-1.348,5.371-3.355a3.838,3.838,0,0,0-1.182-4.992,4.634,4.634,0,0,1,4.6,2.9A6.381,6.381,0,0,1,337.714,264.872Z" transform="translate(-287.536 -245.082)" fill="#0c4767"/>
    </g>
  </g>
  <g id="Group_1432" data-name="Group 1432" transform="translate(61.048 9.502)">
    <path id="Path_2256" data-name="Path 2256" d="M201.366,531.219l5.54,11.152,5.516-11.152h3.333v16.788h-2.614l-.024-12.544-5.3,10.793h-1.847l-5.3-10.793v12.544h-2.662V531.219Z" transform="translate(-198.009 -531.123)" fill="#0c4767"/>
    <path id="Path_2257" data-name="Path 2257" d="M320.059,559.951h-9.641a3.885,3.885,0,0,0,3.958,3.19,4.961,4.961,0,0,0,3.6-1.487l1.463,1.558a6.943,6.943,0,0,1-5.277,2.159,6.476,6.476,0,1,1-.071-12.951C318.573,552.421,320.4,555.346,320.059,559.951Zm-2.4-2.015a3.277,3.277,0,0,0-3.55-3.31,3.614,3.614,0,0,0-3.741,3.31Z" transform="translate(-287.298 -548.391)" fill="#0c4767"/>
    <path id="Path_2258" data-name="Path 2258" d="M393.492,559.951H383.85a3.886,3.886,0,0,0,3.958,3.19,4.963,4.963,0,0,0,3.6-1.487l1.463,1.558a6.944,6.944,0,0,1-5.277,2.159,6.476,6.476,0,1,1-.072-12.951C392.005,552.421,393.828,555.346,393.492,559.951Zm-2.4-2.015a3.276,3.276,0,0,0-3.549-3.31,3.614,3.614,0,0,0-3.741,3.31Z" transform="translate(-347.107 -548.391)" fill="#0c4767"/>
    <path id="Path_2259" data-name="Path 2259" d="M462.5,551.612a6.122,6.122,0,0,1-3.142.936,3.361,3.361,0,0,1-3.573-3.718V542.21h-1.8v-2.063h1.8v-3.5h2.734v3.5h3.765v2.063h-3.765v6.116c0,1.318.5,1.727,1.367,1.727a4.458,4.458,0,0,0,1.919-.552Z" transform="translate(-406.493 -535.543)" fill="#0c4767"/>
    <path id="Path_2260" data-name="Path 2260" d="M524.063,539.189a8.955,8.955,0,0,1-17.891,0c0-4.845,3.885-8.49,8.945-8.49S524.063,534.368,524.063,539.189Zm-14.606,0a5.7,5.7,0,0,0,5.708,5.66,5.637,5.637,0,1,0-5.708-5.66Z" transform="translate(-449.001 -530.699)" fill="#fe9920"/>
    <path id="Path_2261" data-name="Path 2261" d="M614.943,554.764a3.482,3.482,0,0,0-3.5,3.789c0,2.3,1.44,3.837,3.5,3.837a4.131,4.131,0,0,0,3.454-1.51l1.943,1.607a6.441,6.441,0,0,1-5.565,2.59,6.523,6.523,0,0,1,.048-13.047,6.543,6.543,0,0,1,5.372,2.35l-1.9,1.8A4.4,4.4,0,0,0,614.943,554.764Z" transform="translate(-532.181 -548.073)" fill="#fe9920"/>
    <path id="Path_2262" data-name="Path 2262" d="M686.783,551.424a6.18,6.18,0,0,1-3.213.935,3.506,3.506,0,0,1-3.765-3.838V542.19h-1.8l-.024-2.278H679.8v-3.526H682.9v3.526h3.669v2.278H682.9v5.78c0,1.223.5,1.63,1.343,1.63a4.355,4.355,0,0,0,1.823-.527Z" transform="translate(-588.935 -535.331)" fill="#fe9920"/>
    <path id="Path_2263" data-name="Path 2263" d="M742.578,558.529c0,3.909-2.735,6.548-6.74,6.548-4.053,0-6.787-2.638-6.787-6.548,0-3.885,2.734-6.5,6.787-6.5C739.843,552.03,742.578,554.644,742.578,558.529Zm-10.385.048a3.631,3.631,0,1,0,3.646-3.885A3.593,3.593,0,0,0,732.192,558.577Z" transform="translate(-630.53 -548.073)" fill="#fe9920"/>
  </g>
</svg>
